<svg xmlns="http://www.w3.org/2000/svg" width="1040" height="508" viewBox="0 0 1040 508" role="img" aria-label="Riepilogo equipaggi" font-family="Arial, Helvetica, sans-serif" data-columns="1"><rect width="1040" height="508" fill="#ffffff"/><rect x="28" y="66" width="64" height="4" rx="2" fill="#1d6fa5"/><text x="28" y="56" font-family="Arial, Helvetica, sans-serif" font-size="28" font-weight="700" fill="#123d67">Sabato PM</text><g data-crew-number="1" aria-label="Equipaggio 1"><rect x="28" y="82" width="984" height="265" rx="12" fill="#ffffff" stroke="#d6e0e8" stroke-width="1.5"/><text x="42" y="116" font-size="20" font-weight="700" fill="#17324d">Equipaggio 1</text><text x="42" y="139" font-family="Arial, Helvetica, sans-serif" font-size="15" fill="#42566b">Destinazione: Senza barca</text><text x="42" y="168" font-family="Arial, Helvetica, sans-serif" font-size="18" fill="#172b3f">Zeno</text><g role="img" aria-label="Comandata"><title>Comandata</title><rect x="958" y="152" width="18" height="18" rx="4" fill="#2f5fa0" stroke="none" stroke-width="0"/><text x="967" y="164.5" font-family="Arial, Helvetica, sans-serif" text-anchor="middle" font-size="9" font-weight="900" fill="#ffffff">C</text></g><g role="img" aria-label="Minorenne"><title>Minorenne</title><rect x="980" y="152" width="18" height="18" rx="4" fill="#b42318" stroke="none" stroke-width="0"/><text x="989" y="164.5" font-family="Arial, Helvetica, sans-serif" text-anchor="middle" font-size="9" font-weight="900" fill="#ffffff">M</text></g><line x1="42" y1="182" x2="998" y2="182" stroke="#e5ebf0" stroke-width="1"/><text x="42" y="207" font-family="Arial, Helvetica, sans-serif" font-size="18" fill="#172b3f">Berto</text><line x1="42" y1="221" x2="998" y2="221" stroke="#e5ebf0" stroke-width="1"/><text x="42" y="246" font-family="Arial, Helvetica, sans-serif" font-size="18" fill="#172b3f">Carlo</text><line x1="42" y1="260" x2="998" y2="260" stroke="#e5ebf0" stroke-width="1"/><text x="42" y="285" font-family="Arial, Helvetica, sans-serif" font-size="18" fill="#172b3f">Dina</text><line x1="42" y1="299" x2="998" y2="299" stroke="#e5ebf0" stroke-width="1"/><text x="42" y="324" font-family="Arial, Helvetica, sans-serif" font-size="18" fill="#172b3f">Ernesto</text></g><g data-crew-number="2" aria-label="Equipaggio 2"><rect x="28" y="359" width="984" height="109" rx="12" fill="#ffffff" stroke="#d6e0e8" stroke-width="1.5"/><text x="42" y="393" font-size="20" font-weight="700" fill="#17324d">Equipaggio 2</text><text x="42" y="416" font-family="Arial, Helvetica, sans-serif" font-size="15" fill="#42566b">Destinazione: Senza barca</text><text x="42" y="445" font-family="Arial, Helvetica, sans-serif" font-size="18" fill="#172b3f">Fiona</text></g></svg>